<svg width="24" height="24" viewBox="0 0 24 24" fill="none" xmlns="http://www.w3.org/2000/svg">
<path d="M6.2069 9.37931H19.0345C16.9655 5.65517 14.4797 4.32001 9.51724 4C11.1724 5.24138 11.1724 6.48276 10.7586 6.89655C7.03448 4.82759 3.31034 7.72414 0 4C0.827586 8.96552 2.48276 10.2069 5.7931 11.8621C3.31034 11.8621 2.06897 12.2759 0.827586 13.931C5.7931 14.7586 6.62069 15.1724 9.10345 17.6552L11.5862 14.7586L6.2069 9.37931Z" fill="#9AC802"/>
<path d="M11.5862 10.6207H9.10345L13.2414 14.7586L9.10345 19.7241H11.5862L15.7241 14.7586L11.5862 10.6207Z" fill="#9AC802"/>
<path d="M15.7241 10.6207H13.2413L17.3792 14.7586L13.2413 19.7242H15.7241L19.862 14.7586L15.7241 10.6207Z" fill="#9AC802"/>
<path d="M19.862 10.6207H17.3792L21.5172 14.7586L17.3792 19.7242H19.862L23.9999 14.7586L19.862 10.6207Z" fill="#9AC802"/>
</svg>
