<svg width="24" height="24" viewBox="0 0 24 24" fill="none" xmlns="http://www.w3.org/2000/svg">
<g opacity="0.6">
<path fill-rule="evenodd" clip-rule="evenodd" d="M13.1263 9.5C12.9536 9.87399 12.5638 10.1348 12.1106 10.1348C11.4972 10.1348 11 9.65694 11 9.06742C11 8.4779 11.4972 8 12.1106 8C12.5071 8 12.855 8.19963 13.0515 8.5H21.5C21.7761 8.5 22 8.72386 22 9V17.5776C22.8549 17.815 23.5 18.5717 23.5 19.5C23.5 20.6262 22.5505 21.5 21.4286 21.5C20.3068 21.5 19.3572 20.6262 19.3572 19.5C19.3572 18.5207 20.0751 17.7323 21 17.5432V9.5H13.1263ZM5 11V16.4935L11.7551 20.2889C11.9072 20.3743 12.0928 20.3743 12.2449 20.2889L19 16.4935V11H20V16.7861C20 16.9668 19.9025 17.1335 19.7449 17.222L12.7347 21.1607C12.2785 21.4171 11.7215 21.4171 11.2653 21.1607L4.25508 17.222C4.09753 17.1335 4 16.9668 4 16.7861V11H5ZM21.4286 18.5C20.8147 18.5 20.3572 18.9694 20.3572 19.5C20.3572 20.0306 20.8147 20.5 21.4286 20.5C22.0425 20.5 22.5 20.0306 22.5 19.5C22.5 18.9694 22.0425 18.5 21.4286 18.5Z" fill="white"/>
<path fill-rule="evenodd" clip-rule="evenodd" d="M11.2005 1.91267C11.6891 1.60492 12.3109 1.60491 12.7995 1.91267L21.9369 7.66846C22.8658 8.25363 22.872 9.60576 21.9485 10.1994L12.8111 16.073C12.317 16.3906 11.683 16.3906 11.1889 16.073L2.05158 10.1994C1.12802 9.60576 1.13422 8.25363 2.06319 7.66846L11.2005 1.91267ZM12.2665 2.75879C12.1037 2.65621 11.8964 2.65621 11.7335 2.75879L2.59618 8.51458C2.28652 8.70964 2.28445 9.16035 2.59231 9.35824L11.7297 15.2318C11.8944 15.3377 12.1057 15.3377 12.2704 15.2318L21.4077 9.35824C21.7156 9.16035 21.7135 8.70964 21.4039 8.51458L12.2665 2.75879Z" fill="white"/>
</g>
</svg>
