<svg width="24" height="24" viewBox="0 0 24 24" fill="none" xmlns="http://www.w3.org/2000/svg">
<path fill-rule="evenodd" clip-rule="evenodd" d="M9.00331 4.50001C9.24429 4.50161 9.44985 4.67487 9.49221 4.9121L11.5777 16.5908L13.6478 8.17469C13.7021 7.95395 13.8985 7.79762 14.1258 7.79418C14.3531 7.79073 14.5541 7.94104 14.615 8.16003L16.0798 13.4222L16.8676 11.4062C16.9426 11.2145 17.1274 11.0882 17.3333 11.0882H20C20.2761 11.0882 20.5 11.3121 20.5 11.5882C20.5 11.8644 20.2761 12.0882 20 12.0882H17.6748L16.4657 15.182C16.3874 15.3824 16.1896 15.5102 15.9747 15.4994C15.7599 15.4885 15.576 15.3414 15.5183 15.1341L14.1632 10.266L11.9855 19.1194C11.9291 19.3488 11.7199 19.5074 11.4839 19.4997C11.2478 19.4921 11.0493 19.3204 11.0078 19.0879L8.98185 7.74265L8.22434 11.6826C8.17908 11.9181 7.97308 12.0882 7.73333 12.0882H4C3.72386 12.0882 3.5 11.8644 3.5 11.5882C3.5 11.3121 3.72386 11.0882 4 11.0882H7.32031L8.50899 4.9056C8.55449 4.66894 8.76233 4.49842 9.00331 4.50001Z" fill="#9AC802"/>
</svg>
