<svg width="24" height="24" viewBox="0 0 24 24" fill="none" xmlns="http://www.w3.org/2000/svg">
<g opacity="0.6">
<path fill-rule="evenodd" clip-rule="evenodd" d="M5.5 11.125C5.5 8.0184 8.0184 5.5 11.125 5.5C14.2316 5.5 16.75 8.0184 16.75 11.125C16.75 14.2316 14.2316 16.75 11.125 16.75C8.0184 16.75 5.5 14.2316 5.5 11.125ZM11.125 4.5C7.46611 4.5 4.5 7.46611 4.5 11.125C4.5 14.7839 7.46611 17.75 11.125 17.75C12.7745 17.75 14.2831 17.1472 15.4427 16.1499L18.6464 19.3536C18.8417 19.5488 19.1583 19.5488 19.3536 19.3536C19.5488 19.1583 19.5488 18.8417 19.3536 18.6464L16.1499 15.4427C17.1472 14.2831 17.75 12.7745 17.75 11.125C17.75 7.46611 14.7839 4.5 11.125 4.5Z" fill="white"/>
</g>
</svg>
