<svg width="24" height="24" viewBox="0 0 24 24" fill="none" xmlns="http://www.w3.org/2000/svg">
<g opacity="0.6">
<path fill-rule="evenodd" clip-rule="evenodd" d="M14.1178 7.5098L12 3.24741L9.88222 7.5098C9.591 8.09592 9.03143 8.50248 8.384 8.59832L3.67579 9.2953L7.07514 12.6266C7.54258 13.0847 7.75632 13.7425 7.64741 14.3879L6.85536 19.081L11.0741 16.8775C11.6542 16.5744 12.3458 16.5744 12.926 16.8775L17.1447 19.081L16.3526 14.3879C16.2437 13.7425 16.4574 13.0847 16.9249 12.6266L20.3242 9.2953L15.616 8.59832C14.9686 8.50248 14.409 8.09592 14.1178 7.5098ZM12.8956 2.80245C12.5279 2.06239 11.4722 2.06239 11.1045 2.80245L8.98667 7.06484C8.84106 7.3579 8.56128 7.56118 8.23756 7.6091L3.52935 8.30608C2.71189 8.42709 2.38566 9.43113 2.97587 10.0095L6.37522 13.3408C6.60894 13.5699 6.71581 13.8988 6.66135 14.2214L5.8693 18.9146C5.73179 19.7294 6.58587 20.35 7.31834 19.9674L11.537 17.7638C11.8271 17.6123 12.1729 17.6123 12.463 17.7638L16.6817 19.9674C17.4141 20.35 18.2682 19.7294 18.1307 18.9146L17.3387 14.2214C17.2842 13.8988 17.3911 13.5699 17.6248 13.3408L21.0241 10.0095C21.6144 9.43113 21.2881 8.4271 20.4707 8.30608L15.7625 7.6091C15.4387 7.56118 15.159 7.3579 15.0133 7.06484L12.8956 2.80245Z" fill="white"/>
</g>
</svg>
