<svg width="22" height="23" viewBox="0 0 22 23" fill="none" xmlns="http://www.w3.org/2000/svg">
<path fill-rule="evenodd" clip-rule="evenodd" d="M12.9413 7.19689L11 3.1121L9.0587 7.19689C8.79175 7.75859 8.2788 8.14821 7.68533 8.24006L3.36947 8.908L6.48553 12.1005C6.91403 12.5395 7.10995 13.1699 7.01012 13.7884L6.28407 18.286L10.1512 16.1742C10.683 15.8838 11.317 15.8838 11.8488 16.1742L15.7159 18.286L14.9899 13.7884C14.89 13.1699 15.086 12.5395 15.5145 12.1005L18.6305 8.908L14.3147 8.24006C13.7212 8.14821 13.2083 7.75859 12.9413 7.19689ZM11.8209 2.68568C11.4839 1.97646 10.5161 1.97646 10.1791 2.68568L8.23777 6.77047C8.1043 7.05132 7.84783 7.24613 7.55109 7.29205L3.23523 7.95999C2.4859 8.07597 2.18685 9.03817 2.72788 9.59246L5.84394 12.7849C6.05819 13.0044 6.15615 13.3196 6.10623 13.6289L5.38019 18.1265C5.25413 18.9074 6.03704 19.502 6.70847 19.1354L10.5756 17.0237C10.8415 16.8785 11.1585 16.8785 11.4244 17.0237L15.2915 19.1354C15.963 19.502 16.7459 18.9074 16.6198 18.1265L15.8938 13.6289C15.8438 13.3196 15.9418 13.0044 16.1561 12.7849L19.2721 9.59246C19.8131 9.03817 19.5141 8.07597 18.7648 7.95999L14.4489 7.29205C14.1522 7.24613 13.8957 7.05132 13.7622 6.77047L11.8209 2.68568Z" fill="#9AC802"/>
</svg>
