<svg width="32" height="32" viewBox="0 0 32 32" fill="none" xmlns="http://www.w3.org/2000/svg">
<path d="M23.8421 20.4473L15.8684 25.0526L8.02628 20.5263V11.4737L9.15786 10.8158C9.57891 11.2368 10.1842 11.5 10.8421 11.5C12.1579 11.5 13.2368 10.421 13.2368 9.10525C13.2368 7.78946 12.1579 6.71051 10.8421 6.71051C9.52628 6.71051 8.44733 7.78946 8.44733 9.10525C8.44733 9.31577 8.47365 9.5263 8.52628 9.71051L6.76312 10.7368V21.2631L15.8684 26.5263L25.1052 21.1842L23.8421 20.4473ZM10.8158 7.76314C11.5526 7.76314 12.1579 8.36841 12.1579 9.10525C12.1579 9.84209 11.5526 10.4474 10.8158 10.4474C10.0789 10.4474 9.47365 9.84209 9.47365 9.10525C9.47365 8.36841 10.0789 7.76314 10.8158 7.76314Z" fill="white"/>
<path d="M15.8421 6.94738L23.5264 11.3947L24.8421 10.6842L15.8421 5.47369L13.3948 6.86843C13.6842 7.18422 13.8948 7.57896 14.0264 7.97369L15.8421 6.94738Z" fill="white"/>
<path d="M19.1316 17.5789L15.8421 19.5L12.8421 17.7368V14.2631L15.8421 12.5L18.579 14.0789L19.8421 13.3947L15.8421 11.1053L11.6053 13.5526V18.4474L15.8421 20.8947L20.3421 18.3158L19.1316 17.5789Z" fill="#ADD136"/>
<path d="M29.7105 8L15.8421 0L2 8L3.28947 8.73684L15.8684 1.47369L27.1842 8L25.1842 9.18421L26.3421 9.8421L28.421 8.71053H28.4474V23.2368L26.8421 24.1579C26.421 23.7105 25.8158 23.4474 25.1579 23.4474C23.8421 23.4474 22.7632 24.5263 22.7632 25.8421C22.7632 27.1579 23.8421 28.2368 25.1579 28.2368C26.4737 28.2368 27.5526 27.1579 27.5526 25.8421C27.5526 25.6316 27.5263 25.4474 27.4737 25.2631L29.7368 23.9474V8H29.7105ZM25.1316 27.2368C24.3947 27.2368 23.7895 26.6316 23.7895 25.8947C23.7895 25.1579 24.3947 24.5526 25.1316 24.5526C25.8684 24.5526 26.4737 25.1579 26.4737 25.8947C26.4737 26.6316 25.8684 27.2368 25.1316 27.2368Z" fill="#ADD136"/>
<path d="M21.921 27L15.8421 30.5263L4.52632 24L6.55263 22.8158L5.26316 22.0789L2 24L15.8421 32L22.5526 28.1316C22.2895 27.7895 22.0789 27.4211 21.921 27Z" fill="#ADD136"/>
<path d="M25.1316 24.5263C25.8684 24.5263 26.4737 25.1316 26.4737 25.8684C26.4737 26.6052 25.8684 27.2105 25.1316 27.2105C24.3947 27.2105 23.7895 26.6052 23.7895 25.8684C23.7631 25.1316 24.3684 24.5263 25.1316 24.5263Z" fill="#00AEEF"/>
<path d="M10.8158 7.76315C11.5526 7.76315 12.1579 8.36842 12.1579 9.10526C12.1579 9.8421 11.5526 10.4474 10.8158 10.4474C10.079 10.4474 9.47369 9.8421 9.47369 9.10526C9.47369 8.36842 10.079 7.76315 10.8158 7.76315Z" fill="#00AEEF"/>
</svg>
